<?xml version="1.0" standalone="no"?>
<!DOCTYPE svg PUBLIC "-//W3C//DTD SVG 20010904//EN"
 "http://www.w3.org/TR/2001/REC-SVG-20010904/DTD/svg10.dtd">
<svg version="1.0" xmlns="http://www.w3.org/2000/svg"
 width="500.000000pt" height="500.000000pt" viewBox="0 0 500.000000 500.000000"
 preserveAspectRatio="xMidYMid meet">

<g transform="translate(0.000000,500.000000) scale(0.100000,-0.100000)"
fill="#000000" stroke="none">
<path d="M2681 3814 c-18 -73 -53 -256 -48 -260 2 -2 18 62 36 142 17 81 30
149 27 151 -3 3 -9 -12 -15 -33z"/>
<path d="M2260 3796 c0 -64 53 -623 60 -636 13 -21 13 9 -1 105 -5 42 -18 180
-28 306 -10 127 -21 233 -25 236 -3 4 -6 -1 -6 -11z"/>
<path d="M2936 3711 c-3 -5 -26 -68 -51 -140 -26 -73 -66 -180 -91 -239 -76
-182 -84 -202 -76 -202 14 0 181 420 226 568 7 22 2 30 -8 13z"/>
<path d="M2520 3683 c0 -10 -7 -92 -15 -183 -8 -91 -14 -203 -14 -250 1 -79 2
-82 10 -40 5 25 7 59 4 77 -3 18 1 103 10 190 22 227 22 223 13 223 -4 0 -8
-8 -8 -17z"/>
<path d="M3162 3618 c-9 -17 -76 -120 -148 -228 -73 -108 -146 -222 -164 -253
-51 -92 -16 -66 41 31 29 48 101 161 160 252 107 166 144 230 134 230 -3 0
-14 -14 -23 -32z"/>
<path d="M1660 3635 c0 -6 23 -38 51 -70 93 -109 215 -269 288 -376 69 -102
111 -153 111 -133 0 33 -448 609 -450 579z"/>
<path d="M1840 3613 c0 -6 16 -31 37 -55 51 -60 183 -262 238 -363 45 -82 61
-103 71 -92 8 7 -266 434 -308 481 -20 23 -37 36 -38 29z"/>
<path d="M2414 3460 c10 -218 17 -290 28 -290 7 0 9 26 4 78 -3 42 -11 138
-17 212 -6 74 -13 137 -16 140 -3 3 -2 -60 1 -140z"/>
<path d="M2201 3558 c-1 -47 67 -390 80 -402 14 -16 11 11 -16 114 -14 52 -30
138 -36 190 -13 108 -27 159 -28 98z"/>
<path d="M2782 3555 c-6 -22 -22 -85 -36 -140 -14 -55 -37 -138 -51 -184 -23
-78 -26 -114 -6 -82 16 26 113 419 108 435 -2 6 -9 -7 -15 -29z"/>
<path d="M2963 3568 c-6 -7 -27 -58 -48 -113 -21 -55 -56 -140 -77 -190 -22
-49 -46 -105 -54 -122 -17 -40 -3 -44 16 -5 11 23 69 165 161 395 19 47 20 58
2 35z"/>
<path d="M2621 3524 c0 -11 3 -14 6 -6 3 7 2 16 -1 19 -3 4 -6 -2 -5 -13z"/>
<path d="M2083 3510 c2 -8 29 -78 59 -155 30 -77 61 -158 69 -179 8 -22 19
-41 25 -43 11 -4 -122 336 -146 373 -6 11 -10 12 -7 4z"/>
<path d="M3354 3398 c-208 -239 -283 -324 -328 -368 -45 -43 -55 -60 -37 -60
4 0 80 82 167 183 87 100 184 209 214 242 57 62 106 125 96 125 -3 0 -53 -55
-112 -122z"/>
<path d="M2687 3488 c-7 -34 -73 -279 -81 -305 -4 -13 -3 -23 1 -23 5 0 17 24
25 53 24 79 71 288 65 293 -2 3 -7 -5 -10 -18z"/>
<path d="M2612 3480 c0 -14 2 -19 5 -12 2 6 2 18 0 25 -3 6 -5 1 -5 -13z"/>
<path d="M3568 3398 c-106 -119 -296 -310 -418 -421 -52 -47 -91 -89 -88 -93
14 -13 468 441 570 569 53 67 21 39 -64 -55z"/>
<path d="M1600 3357 c69 -68 158 -161 199 -208 117 -132 184 -199 193 -193 11
7 -43 65 -305 332 -104 105 -195 192 -201 192 -6 0 45 -56 114 -123z"/>
<path d="M2581 3338 c-21 -110 -27 -177 -15 -166 7 7 45 270 40 275 -2 2 -13
-47 -25 -109z"/>
<path d="M2345 3360 c14 -171 18 -201 29 -197 14 5 9 61 -14 167 -17 75 -19
79 -15 30z"/>
<path d="M1966 3343 c73 -115 169 -253 175 -253 4 0 -40 70 -97 155 -58 85
-107 155 -110 155 -2 0 12 -26 32 -57z"/>
<path d="M1680 3384 c0 -5 25 -34 56 -64 31 -30 108 -117 171 -193 64 -76 118
-136 121 -133 7 8 -53 81 -189 232 -125 139 -159 172 -159 158z"/>
<path d="M3149 3303 c-29 -37 -92 -111 -141 -165 -79 -89 -105 -126 -79 -116
12 4 116 128 195 233 38 50 73 96 79 103 5 6 7 12 4 12 -3 0 -29 -30 -58 -67z"/>
<path d="M1867 3278 c6 -7 44 -58 85 -113 72 -96 118 -147 118 -131 0 5 -24
36 -53 69 -29 34 -75 90 -101 125 -26 34 -50 62 -53 62 -3 0 -1 -6 4 -12z"/>
<path d="M1695 3139 c197 -190 245 -233 245 -222 0 11 -339 331 -367 346 -10
6 45 -50 122 -124z"/>
<path d="M2968 3203 c-79 -99 -98 -125 -98 -135 0 -18 23 5 81 85 97 130 108
162 17 50z"/>
<path d="M3155 3080 c-77 -77 -135 -140 -130 -140 6 0 73 63 150 140 77 77
135 140 130 140 -6 -1 -73 -64 -150 -140z"/>
<path d="M1440 3206 c0 -2 46 -35 103 -74 56 -40 143 -104 192 -143 122 -96
173 -131 179 -120 3 5 -13 21 -37 36 -23 16 -76 54 -117 85 -202 153 -320 233
-320 216z"/>
<path d="M3470 3094 c-30 -24 -118 -87 -195 -139 -165 -112 -180 -123 -173
-130 3 -3 25 10 49 28 24 18 89 64 144 102 126 87 253 188 233 185 -2 -1 -28
-21 -58 -46z"/>
<path d="M2348 3070 c-179 -32 -337 -130 -395 -243 -32 -63 -36 -146 -9 -176
19 -21 23 -21 556 -21 533 0 537 0 556 21 14 16 18 34 17 70 -6 143 -129 263
-338 329 -54 17 -101 23 -205 25 -74 2 -156 0 -182 -5z m335 -46 c171 -38 311
-139 342 -249 9 -30 15 -65 13 -77 l-3 -23 -535 0 -535 0 -3 37 c-5 54 32 130
90 184 56 52 172 109 262 129 87 19 281 18 369 -1z"/>
<path d="M2435 3020 c-7 -12 2 -30 16 -30 12 0 12 27 0 35 -5 3 -12 1 -16 -5z"/>
<path d="M2635 2980 c-7 -12 2 -30 16 -30 12 0 12 27 0 35 -5 3 -12 1 -16 -5z"/>
<path d="M2195 2930 c-8 -13 4 -32 16 -25 12 8 12 35 0 35 -6 0 -13 -4 -16
-10z"/>
<path d="M2790 2915 c0 -8 7 -15 15 -15 8 0 15 7 15 15 0 8 -7 15 -15 15 -8 0
-15 -7 -15 -15z"/>
<path d="M2370 2855 c0 -8 7 -15 15 -15 8 0 15 7 15 15 0 8 -7 15 -15 15 -8 0
-15 -7 -15 -15z"/>
<path d="M2104 2786 c-8 -22 3 -33 18 -18 9 9 9 15 0 24 -9 9 -13 7 -18 -6z"/>
<path d="M2750 2775 c0 -8 7 -15 15 -15 8 0 15 7 15 15 0 8 -7 15 -15 15 -8 0
-15 -7 -15 -15z"/>
<path d="M1550 3006 c0 -3 9 -10 20 -16 11 -6 20 -8 20 -6 0 3 -9 10 -20 16
-11 6 -20 8 -20 6z"/>
<path d="M3530 2928 c-63 -34 -163 -81 -222 -104 -122 -49 -172 -73 -165 -80
12 -13 474 202 512 237 22 22 -17 5 -125 -53z"/>
<path d="M1610 2966 c0 -2 8 -10 18 -17 15 -13 16 -12 3 4 -13 16 -21 21 -21
13z"/>
<path d="M1650 2936 c0 -8 186 -136 199 -136 25 0 7 17 -62 57 -39 24 -87 52
-104 64 -18 11 -33 18 -33 15z"/>
<path d="M3221 2851 c-47 -26 -87 -53 -89 -59 -3 -11 149 77 173 99 17 17 0 9
-84 -40z"/>
<path d="M1510 2846 c52 -19 144 -55 203 -80 121 -51 117 -50 117 -36 0 5 -12
16 -27 24 -40 20 -312 112 -353 120 -19 3 8 -9 60 -28z"/>
<path d="M3450 2820 c-8 -5 -10 -10 -5 -10 6 0 17 5 25 10 8 5 11 10 5 10 -5
0 -17 -5 -25 -10z"/>
<path d="M3295 2765 c-115 -44 -139 -55 -133 -61 5 -4 226 82 237 92 10 9 -20
0 -104 -31z"/>
<path d="M3510 2754 c-58 -18 -158 -45 -222 -61 -107 -25 -148 -43 -100 -43
29 0 418 114 431 126 14 13 -16 7 -109 -22z"/>
<path d="M1445 2765 c55 -19 346 -95 361 -94 32 1 -112 47 -231 74 -95 21
-165 32 -130 20z"/>
<path d="M1609 2635 c139 -41 181 -49 181 -36 0 5 -26 15 -57 21 -32 6 -90 20
-129 31 -120 32 -116 20 5 -16z"/>
<path d="M3460 2651 c-14 -4 -77 -14 -140 -20 -112 -13 -179 -30 -116 -31 38
0 258 38 288 50 28 11 3 11 -32 1z"/>
<path d="M1925 2592 c-40 -14 -58 -29 -52 -46 6 -15 9 -15 36 -1 41 21 58 19
115 -11 66 -35 124 -35 174 -1 46 33 70 34 125 5 83 -42 138 -41 196 4 32 24
66 23 115 -6 67 -38 107 -39 172 -5 67 35 86 36 132 7 66 -41 161 -40 187 2
14 22 -10 31 -41 15 -42 -22 -74 -19 -119 12 -51 35 -119 37 -160 5 -47 -37
-85 -38 -150 -3 -32 17 -67 31 -79 31 -12 0 -48 -14 -81 -30 -33 -16 -68 -30
-77 -30 -10 0 -45 14 -77 31 -67 35 -108 35 -155 -2 -44 -35 -84 -35 -150 0
-58 31 -74 34 -111 23z"/>
<path d="M3302 2570 c-50 -4 -95 -10 -100 -15 -7 -8 160 1 263 15 l60 7 -65 0
c-36 0 -107 -3 -158 -7z"/>
<path d="M1402 2565 c8 -8 369 -47 376 -41 9 9 -19 14 -178 30 -166 17 -207
19 -198 11z"/>
<path d="M3278 2503 c39 -2 105 -2 145 0 39 1 7 3 -73 3 -80 0 -112 -2 -72 -3z"/>
<path d="M1445 2471 c-100 -6 -91 -7 105 -12 118 -3 219 -4 224 -1 35 20 -94
24 -329 13z"/>
<path d="M1895 2473 c-11 -3 -26 -12 -32 -21 -17 -21 -16 -84 1 -108 14 -18
32 -19 636 -19 604 0 622 1 636 19 18 25 18 87 0 112 -14 18 -33 19 -618 20
-332 1 -612 0 -623 -3z m1219 -55 c8 -13 8 -23 0 -35 -10 -17 -52 -18 -609
-21 -616 -2 -625 -2 -625 37 0 41 0 41 623 39 559 -3 601 -4 611 -20z"/>
<path d="M3210 2450 c0 -12 319 -12 395 -1 32 5 -30 8 -172 9 -141 1 -223 -2
-223 -8z"/>
<path d="M1000 2384 c0 -3 27 -40 60 -83 l59 -79 -59 -78 c-33 -44 -60 -82
-60 -86 0 -5 164 -8 365 -8 l365 0 0 170 0 170 -365 0 c-201 0 -365 -3 -365
-6z m708 -161 l-3 -138 -322 -3 c-178 -1 -323 1 -323 5 0 5 21 35 45 67 25 33
45 64 45 69 0 4 -20 35 -45 67 -25 32 -45 61 -45 64 0 3 146 6 325 6 l326 0
-3 -137z"/>
<path d="M1231 2266 c-9 -11 -8 -18 4 -30 9 -9 23 -16 31 -16 8 0 14 -5 14
-11 0 -6 -11 -9 -25 -7 -13 2 -25 -1 -27 -7 -2 -5 11 -11 28 -13 22 -2 33 2
38 13 8 22 0 34 -32 48 l-27 11 28 4 c15 2 27 8 27 13 0 14 -46 11 -59 -5z"/>
<path d="M1320 2230 c0 -27 5 -50 10 -50 6 0 10 23 10 50 0 28 -4 50 -10 50
-5 0 -10 -22 -10 -50z"/>
<path d="M1360 2230 c0 -55 17 -69 22 -17 l4 32 19 -32 c29 -48 45 -42 45 17
0 55 -17 69 -22 18 l-3 -33 -18 33 c-27 49 -47 42 -47 -18z"/>
<path d="M1482 2268 c-16 -16 -15 -63 2 -78 18 -14 58 -10 63 7 3 8 -6 11 -24
10 -24 -2 -28 2 -28 23 0 21 5 25 28 25 15 -1 26 4 24 10 -5 15 -50 18 -65 3z"/>
<path d="M1570 2230 l0 -50 35 0 c19 0 35 5 35 10 0 6 -11 10 -25 10 -14 0
-25 5 -25 10 0 6 9 10 20 10 11 0 20 5 20 10 0 6 -9 10 -20 10 -11 0 -20 5
-20 10 0 6 11 10 25 10 14 0 25 5 25 10 0 6 -16 10 -35 10 l-35 0 0 -50z"/>
<path d="M3270 2225 l0 -165 366 0 366 0 -28 38 c-15 20 -43 57 -61 81 l-32
43 59 78 c33 44 60 81 60 84 0 3 -164 6 -365 6 l-365 0 0 -165z m670 129 c0
-3 -20 -32 -45 -64 -25 -32 -45 -63 -45 -67 0 -5 20 -36 45 -69 24 -32 45 -62
45 -67 0 -4 -145 -6 -322 -5 l-323 3 -3 138 -3 137 326 0 c179 0 325 -3 325
-6z"/>
<path d="M3415 2270 c-7 -11 0 -13 28 -11 24 3 21 -12 -8 -37 -34 -30 -31 -42
10 -42 19 0 35 5 35 10 0 6 -10 10 -22 10 l-21 0 23 24 c13 15 20 32 17 40 -7
18 -52 22 -62 6z"/>
<path d="M3498 2256 c-17 -39 3 -78 40 -74 25 3 27 6 27 48 0 42 -2 45 -27 48
-22 3 -30 -2 -40 -22z m52 -26 c0 -20 -5 -30 -15 -30 -18 0 -30 24 -21 45 10
28 36 17 36 -15z"/>
<path d="M3595 2270 c-4 -6 5 -10 19 -10 33 0 33 -13 1 -34 -37 -25 -32 -46
11 -46 21 0 33 4 29 10 -3 6 -15 10 -26 10 -18 0 -18 2 6 23 18 15 24 28 20
40 -8 18 -50 24 -60 7z"/>
<path d="M3687 2251 c-22 -38 -22 -51 2 -51 11 0 21 -6 23 -12 3 -9 10 -7 24
6 13 14 15 21 6 24 -6 2 -12 17 -12 33 0 37 -21 38 -43 0z m23 -16 c0 -8 -4
-15 -10 -15 -5 0 -7 7 -4 15 4 8 8 15 10 15 2 0 4 -7 4 -15z"/>
<path d="M1959 2275 c-43 -23 -48 -93 -11 -156 34 -60 25 -59 552 -59 426 0
485 2 509 16 74 44 90 173 25 203 -18 8 -172 11 -537 11 -425 -1 -516 -3 -538
-15z m1071 -40 c21 -25 5 -86 -30 -117 l-30 -28 -470 0 -470 0 -30 28 c-20 17
-33 40 -37 64 -11 72 -40 68 537 68 449 0 519 -2 530 -15z"/>
<path d="M1444 1983 c-34 -7 -104 -72 -145 -136 -34 -55 -38 -58 -48 -39 -19
36 -13 71 14 84 43 19 24 58 -28 58 -40 0 -63 -15 -74 -47 -13 -39 1 -83 37
-118 16 -16 30 -32 30 -37 0 -10 -55 -38 -75 -38 -8 0 -24 9 -35 20 -26 26
-45 25 -64 -2 -26 -36 -21 -93 10 -117 56 -44 134 -15 189 71 25 40 35 47 63
47 31 1 32 0 32 -40 0 -85 47 -106 105 -45 l32 35 13 -24 c27 -51 100 -64 157
-29 18 11 26 11 50 -1 36 -19 77 -19 93 0 11 13 16 12 42 -10 58 -49 136 -22
193 67 25 40 35 47 63 47 31 1 32 0 32 -40 0 -52 15 -79 44 -79 33 0 68 31 96
84 25 46 22 69 -4 47 -8 -7 -25 -11 -38 -9 -20 3 -23 8 -21 40 3 56 28 108 52
108 11 0 28 11 37 25 30 46 -8 90 -68 78 -39 -7 -106 -69 -149 -136 -34 -55
-38 -58 -48 -39 -19 36 -13 71 14 84 43 19 24 58 -28 58 -40 0 -63 -15 -74
-47 -13 -39 1 -83 37 -118 16 -16 30 -32 30 -37 0 -10 -55 -38 -75 -38 -8 0
-24 9 -35 20 -26 26 -45 25 -64 -2 -12 -16 -18 -19 -28 -10 -11 8 -17 6 -26
-9 -8 -12 -23 -19 -42 -19 l-30 0 17 35 c13 27 23 35 43 35 28 0 60 27 60 49
0 9 -8 11 -22 8 -12 -3 -28 -2 -37 2 -41 21 -71 21 -91 1 -29 -29 -26 -52 5
-44 30 7 32 -6 6 -30 -24 -22 -39 -14 -57 30 -20 47 -18 51 20 64 75 25 104
101 51 136 -16 10 -34 14 -50 10 -31 -8 -65 -60 -65 -102 0 -25 -6 -33 -35
-47 -24 -11 -42 -31 -57 -62 -19 -39 -26 -45 -48 -43 -22 3 -25 7 -23 40 3 56
28 108 52 108 20 0 51 34 51 55 0 32 -44 56 -86 48z m216 -76 c0 -8 -9 -22
-20 -32 -19 -18 -20 -17 -20 7 0 13 3 28 7 31 11 12 33 8 33 -6z m-286 -97
c-12 -32 -24 -50 -34 -50 -37 0 -32 22 18 89 32 43 39 26 16 -39z m780 0 c-12
-32 -24 -50 -34 -50 -37 0 -32 22 18 89 32 43 39 26 16 -39z m-554 -31 c6 -22
14 -47 17 -56 4 -11 0 -14 -18 -11 -32 4 -50 42 -37 79 14 40 25 36 38 -12z"/>
<path d="M2605 1968 c-98 -34 -159 -144 -107 -191 25 -23 75 -21 97 3 16 17
16 24 6 44 -27 50 17 89 100 88 66 -1 93 -44 47 -76 -27 -19 -39 -12 -36 22 2
21 -2 28 -18 30 -17 2 -26 -9 -48 -63 -43 -101 -102 -139 -146 -95 -25 25 -42
25 -63 3 -49 -55 -16 -142 55 -143 40 0 70 14 106 51 21 22 32 28 32 17 0 -25
35 -48 74 -48 30 0 45 7 72 34 28 28 34 41 34 77 0 24 -4 50 -9 58 -7 10 1 23
25 46 53 51 39 111 -32 141 -39 16 -145 17 -189 2z m133 -208 c4 -27 -21 -52
-44 -43 -17 6 -18 45 -2 61 19 19 43 10 46 -18z"/>
<path d="M3130 1873 c-18 -13 -21 -22 -15 -50 11 -58 -53 -136 -71 -88 -4 9
-1 36 5 62 8 31 9 49 2 56 -15 15 -48 -18 -62 -62 -13 -41 -36 -71 -55 -71
-19 0 -22 21 -9 71 25 94 -24 92 -62 -2 -24 -59 -30 -148 -11 -167 20 -20 49
-13 79 19 24 26 29 28 29 12 0 -46 52 -57 93 -19 14 13 42 56 62 96 20 41 41
70 48 67 15 -5 13 -29 -6 -88 -29 -88 28 -130 94 -71 33 30 33 30 44 8 7 -13
22 -22 41 -24 25 -2 37 4 58 28 24 29 26 30 26 10 0 -58 -104 -106 -132 -60
-7 11 -16 20 -19 20 -9 0 -29 -49 -29 -71 0 -32 44 -69 83 -69 45 0 81 29 108
90 12 27 26 47 31 44 17 -11 49 8 64 38 l16 31 12 -24 c46 -93 177 -42 237 92
13 27 26 49 31 49 18 0 20 -31 4 -70 -20 -51 -20 -84 0 -104 37 -37 94 -8 134
68 27 50 22 70 -11 41 -15 -14 -24 -16 -36 -9 -9 5 -16 12 -15 14 0 3 3 27 7
53 6 37 4 52 -7 63 -21 21 -70 32 -97 23 -19 -8 -22 -14 -18 -42 11 -74 -47
-140 -120 -135 -24 2 -44 7 -46 13 -1 6 14 9 35 7 70 -6 114 72 68 118 -44 44
-124 11 -165 -69 -46 -92 -97 -88 -56 5 12 25 21 55 21 65 0 21 -20 25 -37 8
-8 -8 -17 -8 -31 0 -50 27 -120 -8 -148 -74 -16 -39 -39 -59 -59 -51 -18 7
-19 28 -3 73 11 29 10 36 -8 53 -30 31 -78 41 -104 23z m548 -92 c-4 -18 -36
-27 -50 -13 -13 13 18 43 38 35 8 -3 14 -13 12 -22z m-264 3 c23 -9 20 -40 -5
-58 -41 -28 -67 8 -32 46 18 21 16 20 37 12z"/>
<path d="M1560 1434 c-11 -31 -19 -58 -18 -59 2 -2 20 -8 41 -13 35 -10 41 -9
63 13 37 37 31 80 -13 104 -39 20 -51 13 -73 -45z m85 7 c3 -5 1 -21 -5 -35
-7 -18 -17 -26 -34 -26 -33 0 -37 9 -19 52 13 32 18 36 33 28 11 -6 21 -14 25
-19z"/>
<path d="M3370 1479 c-13 -6 -26 -12 -28 -14 -9 -9 33 -115 46 -115 10 0 12 8
7 30 -8 37 15 42 37 8 9 -13 19 -18 27 -14 9 6 7 14 -9 31 -12 13 -20 30 -17
37 6 17 -11 48 -26 47 -7 0 -23 -5 -37 -10z m40 -35 c0 -8 -9 -14 -20 -14 -22
0 -28 26 -7 33 16 6 27 -1 27 -19z"/>
<path d="M1692 1391 c-16 -46 -17 -61 -8 -64 12 -5 46 79 46 111 0 31 -20 6
-38 -47z"/>
<path d="M3242 1434 c-24 -17 -30 -61 -12 -95 14 -25 71 -26 93 -1 23 25 21
54 -4 86 -23 30 -45 33 -77 10z m64 -40 c9 -35 -2 -56 -28 -52 -33 4 -49 55
-24 73 23 18 45 9 52 -21z"/>
<path d="M1757 1423 c-16 -15 -6 -50 18 -63 25 -13 29 -30 8 -37 -6 -2 -18 3
-26 12 -11 11 -18 12 -23 4 -9 -15 23 -39 53 -39 13 0 27 9 34 22 10 19 8 25
-21 50 -28 23 -31 28 -17 34 10 3 23 1 31 -5 17 -14 29 -2 15 16 -12 13 -61
18 -72 6z"/>
<path d="M1866 1398 c-6 -19 -26 -106 -26 -112 0 -3 7 -6 15 -6 9 0 15 9 15
25 0 22 3 24 30 19 37 -8 41 11 4 20 -32 8 -26 31 9 31 14 0 28 3 32 7 6 6 -2
9 -58 24 -9 3 -19 -1 -21 -8z"/>
<path d="M3102 1401 c-11 -6 -11 -18 1 -62 14 -58 26 -66 71 -50 34 14 43 37
22 60 -9 10 -16 22 -15 27 4 26 -4 34 -33 34 -18 0 -39 -4 -46 -9z m58 -26 c0
-8 -9 -15 -20 -15 -11 0 -20 7 -20 15 0 8 9 15 20 15 11 0 20 -7 20 -15z m20
-49 c0 -16 -27 -29 -41 -20 -19 11 -9 34 16 34 15 0 25 -6 25 -14z"/>
<path d="M1967 1383 c-11 -18 -19 -123 -9 -123 5 0 13 12 16 26 8 32 30 26 34
-8 2 -15 10 -29 18 -32 13 -5 15 0 9 34 -4 26 -3 40 4 40 6 0 11 11 11 24 0
24 -3 26 -62 42 -9 3 -18 1 -21 -3z m61 -40 c2 -8 -6 -13 -22 -13 -19 0 -24 4
-19 15 6 18 34 16 41 -2z"/>
<path d="M3012 1382 c-9 -6 -31 -95 -32 -129 0 -2 7 -3 15 -3 8 0 15 6 15 14
0 21 41 32 54 14 6 -8 16 -13 23 -11 7 3 -1 26 -24 64 -19 32 -36 59 -37 59 0
0 -7 -4 -14 -8z m28 -64 c0 -5 -7 -8 -15 -8 -17 0 -18 2 -9 25 5 13 8 14 15 3
5 -7 9 -16 9 -20z"/>
<path d="M2074 1313 c-6 -48 -4 -58 12 -70 24 -17 59 -17 74 2 17 20 26 115
12 115 -6 0 -14 -20 -17 -45 -14 -88 -61 -84 -56 5 3 69 -16 64 -25 -7z"/>
<path d="M2876 1357 c-27 -20 -16 -50 22 -63 39 -12 39 -30 -1 -27 -17 0 -27
-3 -24 -10 2 -7 21 -12 43 -12 37 0 39 2 39 30 0 25 -5 31 -33 39 -36 10 -38
33 -3 28 15 -1 21 3 19 10 -6 18 -40 21 -62 5z"/>
<path d="M2200 1340 c0 -5 7 -10 15 -10 12 0 15 -13 15 -55 0 -69 17 -72 26
-5 5 40 10 50 25 50 31 0 22 17 -12 24 -45 9 -69 7 -69 -4z"/>
<path d="M2723 1305 c4 -26 7 -56 7 -66 0 -15 8 -19 40 -19 27 0 40 4 40 13 0
9 -9 12 -29 9 -30 -4 -30 -4 -33 49 -2 34 -8 54 -17 57 -11 4 -13 -5 -8 -43z"/>
<path d="M2321 1279 c-23 -60 -21 -90 3 -56 7 9 21 17 31 17 10 0 24 -8 31
-17 22 -31 26 -7 8 56 -22 81 -41 81 -73 0z m49 1 c0 -11 -6 -20 -14 -20 -9 0
-12 7 -9 20 3 11 9 20 14 20 5 0 9 -9 9 -20z"/>
<path d="M2614 1294 c3 -26 6 -55 6 -65 0 -15 8 -19 39 -19 22 0 43 5 46 10 4
6 -8 10 -29 10 -29 0 -36 4 -36 20 0 15 7 20 25 20 14 0 25 5 25 10 0 6 -11
10 -25 10 -16 0 -25 6 -25 15 0 10 10 15 30 15 17 0 30 5 30 10 0 6 -21 10
-46 10 l-47 0 7 -46z"/>
<path d="M2480 1270 l0 -61 47 3 c42 3 49 6 57 31 6 17 6 37 0 55 -8 24 -15
27 -57 30 l-47 3 0 -61z m80 20 c14 -26 -3 -60 -30 -60 -17 0 -20 7 -20 40 0
33 3 40 20 40 10 0 24 -9 30 -20z"/>
</g>
</svg>
